M48
; DRILL file {KiCad 9.0.0} date 2026-05-12T09:02:38+0300
; FORMAT={-:-/ absolute / metric / decimal}
; #@! TF.CreationDate,2026-05-12T09:02:38+03:00
; #@! TF.GenerationSoftware,Kicad,Pcbnew,9.0.0
; #@! TF.FileFunction,Plated,1,2,PTH
FMAT,2
METRIC
; #@! TA.AperFunction,Plated,PTH,ViaDrill
T1C0.300
; #@! TA.AperFunction,Plated,PTH,ViaDrill
T2C0.600
; #@! TA.AperFunction,Plated,PTH,ComponentDrill
T3C1.000
%
G90
G05
T1
X190.5Y-190.5
X190.5Y-204.5
X191.5Y-189.5
X191.5Y-204.5
X192.5Y-181.5
X193.5Y-178.5
X193.5Y-193.5
X194.5Y-185.5
X194.5Y-193.5
X195.35Y-205.255
X195.5Y-164.5
X195.5Y-174.5
X195.5Y-186.5
X195.5Y-193.5
X196.5Y-187.5
X196.5Y-193.5
X197.251Y-163.749
X197.3Y-205.255
X197.5Y-188.5
X197.5Y-193.5
X197.96Y-205.5
X198.5Y-191.5
X199.5Y-173.5
X200.5Y-213.5
X200.9Y-170.9
X201.5Y-159.5
X201.5Y-163.947
X201.5Y-171.5
X201.615Y-208.385
X202.5Y-155.5
X202.5Y-165.5
X202.933Y-193.25
X203.5Y-167.5
X203.5Y-178.5
X203.5Y-207.558
X204.5Y-206.5
X205.5Y-161.5
X205.5Y-204.05
X206.0Y-193.068
X206.5Y-155.5
X206.5Y-158.5
X207.005Y-160.995
X207.5Y-160.5
X208.5Y-160.5
X209.5Y-153.5
X209.5Y-158.5
X210.5Y-198.5
X210.745Y-147.04
X210.98Y-203.0
X211.5Y-194.5
X211.5Y-211.5
X213.5Y-166.5
X213.5Y-194.5
X215.5Y-189.5
X215.5Y-199.5
X217.5Y-190.5
X218.5Y-135.5
X218.5Y-165.5
X220.5Y-191.5
X221.744Y-153.504
X221.744Y-158.106
X222.5Y-203.5
X222.884Y-153.5
X222.884Y-158.5
X223.5Y-157.5
X223.5Y-159.9
X223.5Y-163.5
X223.5Y-181.5
X223.584Y-153.5
X225.5Y-135.5
X225.5Y-150.5
X225.5Y-156.5
X225.5Y-160.5
X225.5Y-164.5
X225.5Y-209.5
X226.0Y-136.5
X226.5Y-158.5
X228.5Y-154.5
X229.5Y-169.5
X229.5Y-196.5
X230.5Y-154.5
X230.5Y-194.0
X230.5Y-219.5
X316.5Y-165.5
X316.5Y-200.5
X325.5Y-170.5
X328.5Y-198.5
X332.5Y-196.5
T2
X182.5Y-196.5
X183.5Y-192.5
X186.5Y-212.5
X188.5Y-209.5
X190.5Y-177.5
X192.5Y-154.5
X192.5Y-166.5
X192.5Y-177.5
X199.149Y-163.589
X199.5Y-136.5
X200.0Y-166.5
X203.5Y-135.5
X203.5Y-148.5
X207.5Y-199.0
X207.5Y-210.5
X207.75Y-207.25
X209.308Y-193.587
X209.5Y-212.5
X210.645Y-207.2
X212.5Y-150.5
X212.5Y-186.5
X213.5Y-197.5
X213.5Y-205.5
X214.5Y-147.5
X214.5Y-185.5
X217.5Y-208.5
X217.5Y-215.5
X222.314Y-149.744
X222.5Y-179.5
X224.5Y-147.5
X224.5Y-180.595
X245.5Y-197.5
X246.499Y-178.52
X249.5Y-145.5
X249.5Y-171.5
T3
X180.5Y-178.15
X180.5Y-180.69
X180.5Y-183.23
X180.5Y-185.77
X180.5Y-188.31
X180.5Y-190.85
X200.38Y-133.5
X200.51Y-183.5
X202.92Y-133.5
X203.05Y-183.5
X205.46Y-133.5
X205.59Y-183.5
X208.0Y-133.5
X208.13Y-183.5
X210.54Y-133.5
X210.67Y-183.5
X213.08Y-133.5
X213.21Y-183.5
X215.62Y-133.5
X215.75Y-183.5
X218.16Y-133.5
X218.29Y-183.5
X220.7Y-133.5
X220.83Y-183.5
X223.24Y-133.5
X223.37Y-183.5
X225.78Y-133.5
X225.91Y-183.5
X228.32Y-133.5
X228.45Y-183.5
X249.5Y-177.15
X249.5Y-179.69
X249.5Y-182.23
X249.5Y-184.77
X249.5Y-187.31
X249.5Y-189.85
X339.5Y-174.96
X339.5Y-177.5
X339.5Y-180.04
X339.5Y-182.58
X339.5Y-185.12
X339.5Y-187.66
X339.5Y-190.2
X339.5Y-192.74
X339.5Y-195.28
X339.5Y-197.82
M30
