%TF.GenerationSoftware,KiCad,Pcbnew,9.0.0*%
%TF.CreationDate,2026-05-12T09:02:24+03:00*%
%TF.ProjectId,cluster,636c7573-7465-4722-9e6b-696361645f70,rev?*%
%TF.SameCoordinates,Original*%
%TF.FileFunction,Soldermask,Top*%
%TF.FilePolarity,Negative*%
%FSLAX46Y46*%
G04 Gerber Fmt 4.6, Leading zero omitted, Abs format (unit mm)*
G04 Created by KiCad (PCBNEW 9.0.0) date 2026-05-12 09:02:24*
%MOMM*%
%LPD*%
G01*
G04 APERTURE LIST*
G04 Aperture macros list*
%AMRoundRect*
0 Rectangle with rounded corners*
0 $1 Rounding radius*
0 $2 $3 $4 $5 $6 $7 $8 $9 X,Y pos of 4 corners*
0 Add a 4 corners polygon primitive as box body*
4,1,4,$2,$3,$4,$5,$6,$7,$8,$9,$2,$3,0*
0 Add four circle primitives for the rounded corners*
1,1,$1+$1,$2,$3*
1,1,$1+$1,$4,$5*
1,1,$1+$1,$6,$7*
1,1,$1+$1,$8,$9*
0 Add four rect primitives between the rounded corners*
20,1,$1+$1,$2,$3,$4,$5,0*
20,1,$1+$1,$4,$5,$6,$7,0*
20,1,$1+$1,$6,$7,$8,$9,0*
20,1,$1+$1,$8,$9,$2,$3,0*%
G04 Aperture macros list end*
%ADD10RoundRect,0.250000X-0.375000X-0.625000X0.375000X-0.625000X0.375000X0.625000X-0.375000X0.625000X0*%
%ADD11RoundRect,0.155000X0.212500X0.155000X-0.212500X0.155000X-0.212500X-0.155000X0.212500X-0.155000X0*%
%ADD12C,1.000000*%
%ADD13RoundRect,0.160000X0.160000X-0.197500X0.160000X0.197500X-0.160000X0.197500X-0.160000X-0.197500X0*%
%ADD14C,5.000000*%
%ADD15R,1.700000X1.700000*%
%ADD16O,1.700000X1.700000*%
%ADD17RoundRect,0.250000X-1.025000X0.787500X-1.025000X-0.787500X1.025000X-0.787500X1.025000X0.787500X0*%
%ADD18RoundRect,0.100000X0.100000X-0.637500X0.100000X0.637500X-0.100000X0.637500X-0.100000X-0.637500X0*%
%ADD19RoundRect,0.155000X-0.212500X-0.155000X0.212500X-0.155000X0.212500X0.155000X-0.212500X0.155000X0*%
%ADD20RoundRect,0.160000X-0.197500X-0.160000X0.197500X-0.160000X0.197500X0.160000X-0.197500X0.160000X0*%
%ADD21RoundRect,0.250000X-1.000000X-0.650000X1.000000X-0.650000X1.000000X0.650000X-1.000000X0.650000X0*%
%ADD22RoundRect,0.155000X0.155000X-0.212500X0.155000X0.212500X-0.155000X0.212500X-0.155000X-0.212500X0*%
%ADD23R,1.650000X0.450000*%
%ADD24R,3.500000X6.000000*%
%ADD25RoundRect,0.150000X0.150000X-0.825000X0.150000X0.825000X-0.150000X0.825000X-0.150000X-0.825000X0*%
%ADD26RoundRect,0.160000X-0.160000X0.197500X-0.160000X-0.197500X0.160000X-0.197500X0.160000X0.197500X0*%
%ADD27RoundRect,0.237500X-0.250000X-0.237500X0.250000X-0.237500X0.250000X0.237500X-0.250000X0.237500X0*%
%ADD28RoundRect,0.250000X0.787500X1.025000X-0.787500X1.025000X-0.787500X-1.025000X0.787500X-1.025000X0*%
%ADD29RoundRect,0.218750X0.381250X-0.218750X0.381250X0.218750X-0.381250X0.218750X-0.381250X-0.218750X0*%
%ADD30RoundRect,0.218750X-0.381250X0.218750X-0.381250X-0.218750X0.381250X-0.218750X0.381250X0.218750X0*%
%ADD31R,0.450000X1.650000*%
%ADD32R,6.000000X3.500000*%
G04 APERTURE END LIST*
D10*
%TO.C,D300*%
X148100000Y-143500000D03*
X150900000Y-143500000D03*
%TD*%
D11*
%TO.C,C301*%
X214067500Y-208500000D03*
X212932500Y-208500000D03*
%TD*%
D12*
%TO.C,TP305*%
X174500000Y-187500000D03*
%TD*%
D13*
%TO.C,R302*%
X175500000Y-212097500D03*
X175500000Y-210902500D03*
%TD*%
%TO.C,R205*%
X240500000Y-164097500D03*
X240500000Y-162902500D03*
%TD*%
D10*
%TO.C,D202*%
X313100000Y-203500000D03*
X315900000Y-203500000D03*
%TD*%
%TO.C,D200*%
X278100000Y-143500000D03*
X280900000Y-143500000D03*
%TD*%
D12*
%TO.C,TP206*%
X213500000Y-144500000D03*
%TD*%
D10*
%TO.C,D205*%
X243100000Y-163500000D03*
X245900000Y-163500000D03*
%TD*%
D14*
%TO.C,H101*%
X189500000Y-133500000D03*
%TD*%
%TO.C,H104*%
X89500000Y-233500000D03*
%TD*%
D10*
%TO.C,D304*%
X120100000Y-212500000D03*
X122900000Y-212500000D03*
%TD*%
D13*
%TO.C,R300*%
X145500000Y-144097500D03*
X145500000Y-142902500D03*
%TD*%
D12*
%TO.C,TP200*%
X237500000Y-152500000D03*
%TD*%
D15*
%TO.C,J100*%
X339500000Y-174960000D03*
D16*
X339500000Y-177500000D03*
X339500000Y-180040000D03*
X339500000Y-182580000D03*
X339500000Y-185120000D03*
X339500000Y-187660000D03*
X339500000Y-190200000D03*
X339500000Y-192740000D03*
X339500000Y-195280000D03*
X339500000Y-197820000D03*
%TD*%
D13*
%TO.C,R303*%
X146500000Y-224097500D03*
X146500000Y-222902500D03*
%TD*%
D12*
%TO.C,TP304*%
X191500000Y-208500000D03*
%TD*%
D17*
%TO.C,C202*%
X231504357Y-144452451D03*
X231504357Y-150677451D03*
%TD*%
D18*
%TO.C,IC101*%
X197550000Y-175362500D03*
X198200000Y-175362500D03*
X198850000Y-175362500D03*
X199500000Y-175362500D03*
X200150000Y-175362500D03*
X200800000Y-175362500D03*
X201450000Y-175362500D03*
X201450000Y-169637500D03*
X200800000Y-169637500D03*
X200150000Y-169637500D03*
X199500000Y-169637500D03*
X198850000Y-169637500D03*
X198200000Y-169637500D03*
X197550000Y-169637500D03*
%TD*%
D12*
%TO.C,TP306*%
X184500000Y-156500000D03*
%TD*%
D19*
%TO.C,C100*%
X194932500Y-153500000D03*
X196067500Y-153500000D03*
%TD*%
D20*
%TO.C,R202*%
X317902500Y-203500000D03*
X319097500Y-203500000D03*
%TD*%
D19*
%TO.C,C304*%
X206932500Y-193250000D03*
X208067500Y-193250000D03*
%TD*%
D12*
%TO.C,TP202*%
X190500000Y-181500000D03*
%TD*%
D13*
%TO.C,R304*%
X117500000Y-213097500D03*
X117500000Y-211902500D03*
%TD*%
D21*
%TO.C,D100*%
X331500000Y-174500000D03*
X335500000Y-174500000D03*
%TD*%
D10*
%TO.C,D305*%
X118100000Y-156500000D03*
X120900000Y-156500000D03*
%TD*%
D12*
%TO.C,TP300*%
X343500000Y-180500000D03*
%TD*%
D15*
%TO.C,J401*%
X200380000Y-133500000D03*
D16*
X202920000Y-133500000D03*
X205460000Y-133500000D03*
X208000000Y-133500000D03*
X210540000Y-133500000D03*
X213080000Y-133500000D03*
X215620000Y-133500000D03*
X218160000Y-133500000D03*
X220700000Y-133500000D03*
X223240000Y-133500000D03*
X225780000Y-133500000D03*
X228320000Y-133500000D03*
%TD*%
D15*
%TO.C,J403*%
X200510000Y-183500000D03*
D16*
X203050000Y-183500000D03*
X205590000Y-183500000D03*
X208130000Y-183500000D03*
X210670000Y-183500000D03*
X213210000Y-183500000D03*
X215750000Y-183500000D03*
X218290000Y-183500000D03*
X220830000Y-183500000D03*
X223370000Y-183500000D03*
X225910000Y-183500000D03*
X228450000Y-183500000D03*
%TD*%
D14*
%TO.C,H100*%
X239500000Y-133500000D03*
%TD*%
D13*
%TO.C,R301*%
X175500000Y-157097500D03*
X175500000Y-155902500D03*
%TD*%
D14*
%TO.C,H103*%
X214500000Y-233500000D03*
%TD*%
D12*
%TO.C,TP201*%
X228500000Y-172500000D03*
%TD*%
D10*
%TO.C,D204*%
X243100000Y-203500000D03*
X245900000Y-203500000D03*
%TD*%
D22*
%TO.C,C200*%
X223500000Y-150067500D03*
X223500000Y-148932500D03*
%TD*%
D19*
%TO.C,C201*%
X221932500Y-144500000D03*
X223067500Y-144500000D03*
%TD*%
D12*
%TO.C,TP302*%
X343500000Y-191500000D03*
%TD*%
D23*
%TO.C,U200*%
X220275000Y-163950000D03*
X220275000Y-163300000D03*
X220275000Y-162650000D03*
X220275000Y-162000000D03*
X220275000Y-161350000D03*
X220275000Y-160700000D03*
X220275000Y-160050000D03*
X220275000Y-159400000D03*
X220275000Y-158750000D03*
X220275000Y-158100000D03*
X220275000Y-157450000D03*
X220275000Y-156800000D03*
X220275000Y-156150000D03*
X220275000Y-155500000D03*
X220275000Y-154850000D03*
X220275000Y-154200000D03*
X220275000Y-153550000D03*
X220275000Y-152900000D03*
X220275000Y-152250000D03*
X220275000Y-151600000D03*
X220275000Y-150950000D03*
X220275000Y-150300000D03*
X220275000Y-149650000D03*
X220275000Y-149000000D03*
X220275000Y-148350000D03*
X220275000Y-147700000D03*
X220275000Y-147050000D03*
X210725000Y-147050000D03*
X210725000Y-147700000D03*
X210725000Y-148350000D03*
X210725000Y-149000000D03*
X210725000Y-149650000D03*
X210725000Y-150300000D03*
X210725000Y-150950000D03*
X210725000Y-151600000D03*
X210725000Y-152250000D03*
X210725000Y-152900000D03*
X210725000Y-153550000D03*
X210725000Y-154200000D03*
X210725000Y-154850000D03*
X210725000Y-155500000D03*
X210725000Y-156150000D03*
X210725000Y-156800000D03*
X210725000Y-157450000D03*
X210725000Y-158100000D03*
X210725000Y-158750000D03*
X210725000Y-159400000D03*
X210725000Y-160050000D03*
X210725000Y-160700000D03*
X210725000Y-161350000D03*
X210725000Y-162000000D03*
X210725000Y-162650000D03*
X210725000Y-163300000D03*
X210725000Y-163950000D03*
D24*
X215550000Y-155500000D03*
%TD*%
D25*
%TO.C,IC100*%
X194690000Y-161975000D03*
X195960000Y-161975000D03*
X197230000Y-161975000D03*
X198500000Y-161975000D03*
X199770000Y-161975000D03*
X201040000Y-161975000D03*
X202310000Y-161975000D03*
X202310000Y-157025000D03*
X201040000Y-157025000D03*
X199770000Y-157025000D03*
X198500000Y-157025000D03*
X197230000Y-157025000D03*
X195960000Y-157025000D03*
X194690000Y-157025000D03*
%TD*%
D12*
%TO.C,TP301*%
X343500000Y-187500000D03*
%TD*%
D19*
%TO.C,C300*%
X206932500Y-208500000D03*
X208067500Y-208500000D03*
%TD*%
%TO.C,C101*%
X196932500Y-166500000D03*
X198067500Y-166500000D03*
%TD*%
D10*
%TO.C,D301*%
X178100000Y-156500000D03*
X180900000Y-156500000D03*
%TD*%
%TO.C,D203*%
X278100000Y-223500000D03*
X280900000Y-223500000D03*
%TD*%
D12*
%TO.C,TP303*%
X200500000Y-128500000D03*
%TD*%
D19*
%TO.C,C303*%
X202932500Y-193250000D03*
X204067500Y-193250000D03*
%TD*%
D14*
%TO.C,H102*%
X339500000Y-233500000D03*
%TD*%
D26*
%TO.C,R200*%
X275500000Y-142902500D03*
X275500000Y-144097500D03*
%TD*%
D10*
%TO.C,D201*%
X313100000Y-163500000D03*
X315900000Y-163500000D03*
%TD*%
D12*
%TO.C,TP203*%
X200500000Y-139500000D03*
%TD*%
D13*
%TO.C,R203*%
X275500000Y-224097500D03*
X275500000Y-222902500D03*
%TD*%
%TO.C,R204*%
X240500000Y-203707500D03*
X240500000Y-202512500D03*
%TD*%
D12*
%TO.C,TP204*%
X255500000Y-180500000D03*
%TD*%
D27*
%TO.C,RV200*%
X233587500Y-156500000D03*
X235412500Y-156500000D03*
%TD*%
D28*
%TO.C,C302*%
X214612500Y-215500000D03*
X208387500Y-215500000D03*
%TD*%
D12*
%TO.C,TP205*%
X203500000Y-150500000D03*
%TD*%
D13*
%TO.C,R305*%
X115500000Y-157097500D03*
X115500000Y-155902500D03*
%TD*%
D29*
%TO.C,FB300*%
X200500000Y-219562500D03*
X200500000Y-217437500D03*
%TD*%
D19*
%TO.C,C204*%
X206932500Y-154500000D03*
X208067500Y-154500000D03*
%TD*%
D30*
%TO.C,FB200*%
X231500000Y-154437500D03*
X231500000Y-156562500D03*
%TD*%
D10*
%TO.C,D303*%
X149100000Y-223500000D03*
X151900000Y-223500000D03*
%TD*%
%TO.C,D302*%
X178100000Y-211500000D03*
X180900000Y-211500000D03*
%TD*%
D27*
%TO.C,RV300*%
X200587500Y-215500000D03*
X202412500Y-215500000D03*
%TD*%
D31*
%TO.C,U300*%
X194050000Y-205275000D03*
X194700000Y-205275000D03*
X195350000Y-205275000D03*
X196000000Y-205275000D03*
X196650000Y-205275000D03*
X197300000Y-205275000D03*
X197950000Y-205275000D03*
X198600000Y-205275000D03*
X199250000Y-205275000D03*
X199900000Y-205275000D03*
X200550000Y-205275000D03*
X201200000Y-205275000D03*
X201850000Y-205275000D03*
X202500000Y-205275000D03*
X203150000Y-205275000D03*
X203800000Y-205275000D03*
X204450000Y-205275000D03*
X205100000Y-205275000D03*
X205750000Y-205275000D03*
X206400000Y-205275000D03*
X207050000Y-205275000D03*
X207700000Y-205275000D03*
X208350000Y-205275000D03*
X209000000Y-205275000D03*
X209650000Y-205275000D03*
X210300000Y-205275000D03*
X210950000Y-205275000D03*
X210950000Y-195725000D03*
X210300000Y-195725000D03*
X209650000Y-195725000D03*
X209000000Y-195725000D03*
X208350000Y-195725000D03*
X207700000Y-195725000D03*
X207050000Y-195725000D03*
X206400000Y-195725000D03*
X205750000Y-195725000D03*
X205100000Y-195725000D03*
X204450000Y-195725000D03*
X203800000Y-195725000D03*
X203150000Y-195725000D03*
X202500000Y-195725000D03*
X201850000Y-195725000D03*
X201200000Y-195725000D03*
X200550000Y-195725000D03*
X199900000Y-195725000D03*
X199250000Y-195725000D03*
X198600000Y-195725000D03*
X197950000Y-195725000D03*
X197300000Y-195725000D03*
X196650000Y-195725000D03*
X196000000Y-195725000D03*
X195350000Y-195725000D03*
X194700000Y-195725000D03*
X194050000Y-195725000D03*
D32*
X202500000Y-200550000D03*
%TD*%
D20*
%TO.C,R201*%
X317902500Y-163500000D03*
X319097500Y-163500000D03*
%TD*%
D22*
%TO.C,C203*%
X207500000Y-159067500D03*
X207500000Y-157932500D03*
%TD*%
D15*
%TO.C,J400*%
X249500000Y-177150000D03*
D16*
X249500000Y-179690000D03*
X249500000Y-182230000D03*
X249500000Y-184770000D03*
X249500000Y-187310000D03*
X249500000Y-189850000D03*
%TD*%
D15*
%TO.C,J402*%
X180500000Y-178150000D03*
D16*
X180500000Y-180690000D03*
X180500000Y-183230000D03*
X180500000Y-185770000D03*
X180500000Y-188310000D03*
X180500000Y-190850000D03*
%TD*%
M02*
