%TF.GenerationSoftware,KiCad,Pcbnew,9.0.0*%
%TF.CreationDate,2026-05-12T09:02:24+03:00*%
%TF.ProjectId,cluster,636c7573-7465-4722-9e6b-696361645f70,rev?*%
%TF.SameCoordinates,Original*%
%TF.FileFunction,Soldermask,Bot*%
%TF.FilePolarity,Negative*%
%FSLAX46Y46*%
G04 Gerber Fmt 4.6, Leading zero omitted, Abs format (unit mm)*
G04 Created by KiCad (PCBNEW 9.0.0) date 2026-05-12 09:02:24*
%MOMM*%
%LPD*%
G01*
G04 APERTURE LIST*
%ADD10C,5.000000*%
%ADD11R,1.700000X1.700000*%
%ADD12O,1.700000X1.700000*%
G04 APERTURE END LIST*
D10*
%TO.C,H101*%
X189500000Y-133500000D03*
%TD*%
%TO.C,H104*%
X89500000Y-233500000D03*
%TD*%
D11*
%TO.C,J100*%
X339500000Y-174960000D03*
D12*
X339500000Y-177500000D03*
X339500000Y-180040000D03*
X339500000Y-182580000D03*
X339500000Y-185120000D03*
X339500000Y-187660000D03*
X339500000Y-190200000D03*
X339500000Y-192740000D03*
X339500000Y-195280000D03*
X339500000Y-197820000D03*
%TD*%
D11*
%TO.C,J401*%
X200380000Y-133500000D03*
D12*
X202920000Y-133500000D03*
X205460000Y-133500000D03*
X208000000Y-133500000D03*
X210540000Y-133500000D03*
X213080000Y-133500000D03*
X215620000Y-133500000D03*
X218160000Y-133500000D03*
X220700000Y-133500000D03*
X223240000Y-133500000D03*
X225780000Y-133500000D03*
X228320000Y-133500000D03*
%TD*%
D11*
%TO.C,J403*%
X200510000Y-183500000D03*
D12*
X203050000Y-183500000D03*
X205590000Y-183500000D03*
X208130000Y-183500000D03*
X210670000Y-183500000D03*
X213210000Y-183500000D03*
X215750000Y-183500000D03*
X218290000Y-183500000D03*
X220830000Y-183500000D03*
X223370000Y-183500000D03*
X225910000Y-183500000D03*
X228450000Y-183500000D03*
%TD*%
D10*
%TO.C,H100*%
X239500000Y-133500000D03*
%TD*%
%TO.C,H103*%
X214500000Y-233500000D03*
%TD*%
%TO.C,H102*%
X339500000Y-233500000D03*
%TD*%
D11*
%TO.C,J400*%
X249500000Y-177150000D03*
D12*
X249500000Y-179690000D03*
X249500000Y-182230000D03*
X249500000Y-184770000D03*
X249500000Y-187310000D03*
X249500000Y-189850000D03*
%TD*%
D11*
%TO.C,J402*%
X180500000Y-178150000D03*
D12*
X180500000Y-180690000D03*
X180500000Y-183230000D03*
X180500000Y-185770000D03*
X180500000Y-188310000D03*
X180500000Y-190850000D03*
%TD*%
M02*
